<svg xmlns="http://www.w3.org/2000/svg" width="24" height="24" viewBox="0 0 24 24">
    <g fill="#000" fill-rule="evenodd">
        <path fill-rule="nonzero" d="M12 21.6a9.6 9.6 0 1 0 0-19.2 9.6 9.6 0 0 0 0 19.2zm0 1.4C5.925 23 1 18.075 1 12S5.925 1 12 1s11 4.925 11 11-4.925 11-11 11z"/>
        <path d="M9 7.145c.176-.156.37-.304.58-.444a4.16 4.16 0 0 1 1.474-.611c.286-.06.595-.09.927-.09.45 0 .862.062 1.233.187.371.125.689.303.953.534.265.23.47.51.615.837.145.328.218.694.218 1.099 0 .395-.057.736-.171 1.024a2.886 2.886 0 0 1-.428.752c-.171.213-.36.398-.564.553l-.58.44a4.553 4.553 0 0 0-.471.406.8.8 0 0 0-.237.448l-.18 1.137h-1.315l-.132-1.27a1.033 1.033 0 0 1 .105-.642c.101-.185.236-.354.405-.507.169-.153.357-.301.564-.444.208-.143.402-.299.584-.467.181-.17.333-.359.455-.57.122-.21.183-.46.183-.751 0-.187-.035-.355-.105-.503a1.136 1.136 0 0 0-.292-.381 1.308 1.308 0 0 0-.447-.246 1.796 1.796 0 0 0-.565-.086 2.51 2.51 0 0 0-1.272.316c-.143.08-.263.153-.362.218a.497.497 0 0 1-.264.098.425.425 0 0 1-.405-.234L9 7.145zm1.47 9.186a1.2 1.2 0 0 1 .335-.833 1.178 1.178 0 0 1 .84-.343c.167 0 .321.031.464.093.143.063.267.146.373.25.107.104.191.228.253.374.063.145.094.298.094.46a1.148 1.148 0 0 1-.347.833 1.182 1.182 0 0 1-.836.335c-.166 0-.322-.03-.467-.09a1.126 1.126 0 0 1-.374-.245 1.138 1.138 0 0 1-.245-.37 1.19 1.19 0 0 1-.09-.464z"/>
    </g>
</svg>
